<?xml version="1.0" encoding="utf-8"?>
<!-- Generator: Adobe Illustrator 25.0.0, SVG Export Plug-In . SVG Version: 6.00 Build 0)  -->
<svg version="1.1" id="Layer_1" xmlns="http://www.w3.org/2000/svg" xmlns:xlink="http://www.w3.org/1999/xlink" x="0px" y="0px"
	 viewBox="0 0 1920 1080" style="enable-background:new 0 0 1920 1080;" xml:space="preserve">
<style type="text/css">
	.st0{fill:#FFFFFF;}
	.st1{fill:#3F189E;}
</style>
<g>
	<g>
		<g>
			<path class="st0" d="M1262.2,607.3c-4.2,2.4-9.3-0.8-9.3-5.6c-0.1-27.5-0.3-54,0.5-80.5c0.1-3.8,6.1-8.5,10-10.7
				c75.4-41.4,150.9-82.4,226.3-123.5c9.9-5.4,19.7-10.9,32.1-17.8c-18.8-10.3-35.3-19.4-51.8-28.4
				c-68.8-37.5-137.5-75.2-206.5-112.2c-8.5-4.6-11.3-10.2-11-21.3c0.2-9.4,0.3-18.8,0.3-28.4c0.1-23.7,25.6-38.4,46.1-26.6l0.4,0.3
				c99.3,57.3,198.5,114.9,297.9,172c6.9,4,9.6,8.7,9.3,18.1c-0.6,18.1,0.4,36.2-0.5,54.2c-0.3,5.6-3.8,13.5-7.6,15.8
				C1486.6,477.9,1374.4,542.6,1262.2,607.3C1262.2,607.3,1262.2,607.3,1262.2,607.3z"/>
			<g>
				<path class="st0" d="M656.7,129.4c4.1-2.4,9.3,0.6,9.4,5.4c0.2,27.6,0.5,54.1-0.1,80.7c-0.1,3.8-6,8.5-10,10.7
					c-75.2,41.7-150.5,83-225.8,124.4c-9.9,5.4-19.7,11-32.1,17.9c18.9,10.3,35.4,19.3,51.9,28.2c69,37.2,137.8,74.6,207,111.4
					c8.5,4.5,11.3,10.1,11.1,21.3c-0.2,9.4-0.2,18.8-0.2,28.3c0,23.7-25.5,38.6-46,26.9c-0.1-0.1-0.3-0.2-0.4-0.3
					c-99.5-56.9-199-114-298.6-170.8c-6.9-4-9.6-8.6-9.3-18.1c0.5-18.1-0.6-36.2,0.3-54.2c0.3-5.6,3.7-13.6,7.5-15.8
					C432.9,259.7,544.8,194.6,656.7,129.4L656.7,129.4z"/>
				<path class="st1" d="M585.7,343.9c3.3,0,6.4,0.6,9.2,1.9c2.9,1.3,5.4,3,7.5,5.1c2.1,2.1,3.8,4.6,5.1,7.5
					c1.3,2.9,1.9,5.9,1.9,9.1c0,3.3-0.6,6.4-1.9,9.2c-1.3,2.9-3,5.4-5.1,7.5c-2.1,2.1-4.6,3.8-7.5,5c-2.9,1.2-5.9,1.8-9.2,1.8
					c-3.2,0-6.2-0.6-9.1-1.8c-2.9-1.2-5.4-2.9-7.5-5c-2.1-2.1-3.8-4.6-5.1-7.5c-1.3-2.9-1.9-5.9-1.9-9.2c0-3.2,0.6-6.2,1.9-9.1
					c1.3-2.9,3-5.4,5.1-7.5c2.1-2.1,4.6-3.8,7.5-5.1C579.4,344.5,582.5,343.9,585.7,343.9z"/>
			</g>
		</g>
		<g>
			<path class="st1" d="M968.2,343.9c3.3,0,6.4,0.6,9.2,1.9c2.9,1.3,5.4,3,7.5,5.1c2.1,2.1,3.8,4.6,5.1,7.5c1.3,2.9,1.9,5.9,1.9,9.1
				c0,3.3-0.6,6.4-1.9,9.2c-1.3,2.9-3,5.4-5.1,7.5c-2.1,2.1-4.6,3.8-7.5,5c-2.9,1.2-5.9,1.8-9.2,1.8c-3.2,0-6.2-0.6-9.1-1.8
				c-2.9-1.2-5.4-2.9-7.5-5c-2.1-2.1-3.8-4.6-5.1-7.5c-1.3-2.9-1.9-5.9-1.9-9.2c0-3.2,0.6-6.2,1.9-9.1c1.3-2.9,3-5.4,5.1-7.5
				c2.1-2.1,4.6-3.8,7.5-5.1C961.9,344.5,965,343.9,968.2,343.9z"/>
			<path class="st1" d="M1040,343.9c3.3,0,6.4,0.6,9.2,1.9s5.4,3,7.5,5.1c2.1,2.1,3.8,4.6,5.1,7.5c1.3,2.9,1.9,5.9,1.9,9.1
				c0,3.3-0.6,6.4-1.9,9.2c-1.3,2.9-3,5.4-5.1,7.5c-2.1,2.1-4.6,3.8-7.5,5c-2.9,1.2-5.9,1.8-9.2,1.8c-3.2,0-6.2-0.6-9.1-1.8
				c-2.9-1.2-5.4-2.9-7.5-5c-2.1-2.1-3.8-4.6-5.1-7.5c-1.3-2.9-1.9-5.9-1.9-9.2c0-3.2,0.6-6.2,1.9-9.1c1.3-2.9,3-5.4,5.1-7.5
				c2.1-2.1,4.6-3.8,7.5-5.1S1036.8,343.9,1040,343.9z"/>
			<path class="st1" d="M1111.8,343.9c3.3,0,6.4,0.6,9.2,1.9s5.4,3,7.5,5.1c2.1,2.1,3.8,4.6,5.1,7.5c1.3,2.9,1.9,5.9,1.9,9.1
				c0,3.3-0.6,6.4-1.9,9.2c-1.3,2.9-3,5.4-5.1,7.5c-2.1,2.1-4.6,3.8-7.5,5c-2.9,1.2-5.9,1.8-9.2,1.8c-3.2,0-6.2-0.6-9.1-1.8
				c-2.9-1.2-5.4-2.9-7.5-5c-2.1-2.1-3.8-4.6-5.1-7.5s-1.9-5.9-1.9-9.2c0-3.2,0.6-6.2,1.9-9.1s3-5.4,5.1-7.5
				c2.1-2.1,4.6-3.8,7.5-5.1S1108.6,343.9,1111.8,343.9z"/>
			<path class="st0" d="M755.3,447.8V173.9c0-4.7,3.3-8.9,7.3-8.9h52.7c4,0,7,4.3,7,8.9v273.8c0,5.1-3,9.4-7,9.4h-52.7
				C758.7,457.1,755.3,452.9,755.3,447.8z"/>
			<path class="st0" d="M1045.1,163.9H850.3c-4.2,0-7.6,3.3-7.6,6.9v133.3c0,0.8,0.2,1.6,0.4,2.3v200.8h-82c-2.7,0-4.9,2.2-4.9,4.9
				v50.2c0,2.7,2.2,4.9,4.9,4.9h137.6v-0.1h4.4c4,0,7-3.5,7-8.3V311.4h247.4c4.2,0,7.3-3.3,7.3-7.3v-19.9
				C1164.7,215.2,1118.9,163.9,1045.1,163.9z M955,244.4h-42.3v-13.3H955V244.4z M1025,244.4v-13.3h20.1c16.6,0,27.7,5,35.3,13.3
				H1025z"/>
			<path class="st0" d="M930.4,560.9V427.7c0-3.6,3.3-7,7.3-7h52.7c4,0,7,3.3,7,7v73.6h13.3v-73.6c0-3.6,3.6-7,7.3-7h53
				c3.6,0,7,3.3,7,7v73.6h12.9v-73.6c0-3.6,3.6-7,7.3-7h53c3.6,0,7,3.3,7,7v133.3c0,4-3.3,7.3-7,7.3H937.7
				C933.8,568.2,930.4,564.9,930.4,560.9z"/>
		</g>
	</g>
	<g>
		<g>
			<path class="st1" d="M117.8,783.7v-62.2c-7.8,0-16.5,1-16.5,23.5v38.7H10.9c1-9.4,2.5-25.7,8.3-40.5c8.9-22.2,22-32.1,46.8-31.8
				V724c-11.9,0-24,1.5-32.3,19.2c-4.5,9.6-6.8,26.8-6.8,26.8H87c0-27.5,0-27.6,0-28c0,0,0,0,0-0.2c0-34.3,20-35.9,44.8-35.6V770
				H153v13.7H117.8z M43.1,813.5V798h14.2v15.6H43.1z M64.6,813.5V798h14.2v15.6H64.6z"/>
			<path class="st1" d="M147.9,783.7V770h27.8v13.7H147.9z"/>
			<path class="st1" d="M171.6,783.7V770c13.2,0,20-7.3,20-19.7V676h14.2c0,0,0,74.8,0,75C205.8,771.3,192.4,783.7,171.6,783.7z"/>
			<path class="st1" d="M254,818.5c-0.3,0-0.5,0-0.5,0v-12.7c12.6,0,16.4-14.4,16.1-24.5c-3,7.3-9.3,10.8-18.4,10.8
				c-18.7,0-29.3-15.1-29.3-43c0-27.3,11.3-42.7,29.8-42.7c0,0,5,0,31.9,0c0,0,0,72.2,0,78.6C283.6,805.9,270.7,818.5,254,818.5z
				 M269.7,719c-13.1,0-16.4,0-16.4,0c-14.2,0-16.7,19-16.7,29.5c0,11.3,1.8,30.6,16.7,30.6c15.6,0,16.4-18.5,16.4-29.6
				C269.7,749.5,269.7,733.3,269.7,719z"/>
			<path class="st1" d="M299.7,783.7V770h35.1v-29c0-18.2-3-23.3-12.9-23.3l2.3-12.9c10.1,0,17.9,4.6,22,12.6
				c2.3,4.3,2.6,7.3,2.6,16.2V770h21.3v13.7C370.2,783.7,353.9,783.7,299.7,783.7z"/>
			<path class="st1" d="M365.2,783.7V770H393v13.7H365.2z"/>
			<path class="st1" d="M388.9,783.7V770c13.2,0,20-7.3,20-19.7V676h14.2c0,0,0,74.8,0,75C423.1,771.3,409.7,783.7,388.9,783.7z"/>
			<path class="st1" d="M439.2,783.7V676h14.2v107.7H439.2z"/>
			<path class="st1" d="M581.5,783.7c-7.4,0-13.6-1.8-18.5-5v2.2c0,19.5-13.1,32.3-30.5,32.6c-2,0-2.8,0.2-4.1,0
				c-17.4,0-30.5-13.2-30.5-32.8v-74.5h14.2v73.8c0,12.1,5.5,19.7,18.4,19.7c12.7,0,18-7.6,18-19.7v-73.8H563v49.8
				c0,8.9,7.8,13.9,18.5,13.9h2.6v13.7H581.5z M523.1,697.5V682h14.2v15.6H523.1z"/>
			<path class="st1" d="M579.2,783.7V770H607v13.7H579.2z"/>
			<path class="st1" d="M602.8,783.7V770h27.8v13.7H602.8z"/>
			<path class="st1" d="M626.5,783.7V770H681c0-51.6-42.5-49.3-42.5-49.3v-12.9c39.2,0,56.6,28.5,56.6,62.2h21.3v13.7H626.5z"/>
			<path class="st1" d="M711.4,783.7V770h27.8v13.7H711.4z"/>
			<path class="st1" d="M735.9,783.7V770H763v-62.9h13.7V770h25v-63.7h14.1V770h26.8v-63.7h14.2V770h19.4v13.7H735.9z M792.3,691.6
				v-15.4h14.2v15.4H792.3z M803.6,669.4V654h14.1v15.4H803.6z M814.7,691.6v-15.4h14.2v15.4H814.7z"/>
			<path class="st1" d="M871.8,783.7V770h27.8v13.7H871.8z"/>
			<path class="st1" d="M948.1,783.7c-11.3-0.2-20-3.8-25.5-10.6c-5.3,7-13.7,10.6-24.7,10.6c-0.2,0-2.3,0-2.5,0V770
				c0.2,0,2.3,0,2.5,0c10.6,0,16.9-6.1,16.9-16.2v-77.6H929c0,0,0,77.6,0,78.1c0,10.1,7.3,15.7,19,15.7c0.2,0,2,0,2.5,0v13.7
				C950.1,783.7,948.2,783.7,948.1,783.7z"/>
			<path class="st1" d="M945.6,783.7V770c13.2,0,20-7.3,20-19.7V676h14.2c0,0,0,74.8,0,75C979.9,771.3,966.5,783.7,945.6,783.7z"/>
			<path class="st1" d="M1059.1,813.5c-2,0.2-2.8,0.2-4.1,0c-17.4,0-30.5-13.2-30.5-32.8c0-0.2,0-74.5,0-74.5h14.2v73.8
				c0,12.1,5.5,19.7,18.4,19.7c12.7,0,18-7.6,18-19.7v-73.8h14.4v74.6C1089.6,800.5,1076.5,813.5,1059.1,813.5z M1048.5,697.5V682
				h14.2v15.6H1048.5z"/>
			<path class="st1" d="M1105.5,783.7V676h14.2v107.7H1105.5z"/>
			<path class="st1" d="M1175.6,783.7c-7.4,0-13.7-1.8-18.7-5v1.2c0,17.7-11.1,34.3-30.5,33.6V801c5.5-0.3,11.4-4.5,13.9-10.8
				c2.8-6.5,2.3-14.7,2.3-19.2c0-0.5,0-64.4,0-64.7h14.2v48.8c0,9.6,7.4,14.9,18.7,14.9h1.7v13.7H1175.6z"/>
			<path class="st1" d="M1173.2,783.7V770h27.8v13.7H1173.2z"/>
			<path class="st1" d="M1196.8,783.7V770h11.6v-31.9c0-20.4,9.4-34.1,29.6-36.7v-13.2h14.1v13.2c20.2,2.6,29.6,16.4,29.6,36.7V770
				h15.4v13.7C1253.3,783.7,1259.9,783.7,1196.8,783.7z M1238,714.4c-8.8,1.7-15.4,7.6-15.4,23.7V770h15.4V714.4z M1267.5,738.1
				c0-16.1-6.6-22-15.4-23.7V770h15.4V738.1z"/>
			<path class="st1" d="M1292.2,783.7V770h27.8v13.7H1292.2z"/>
			<path class="st1" d="M1414,783.7h-97.6V770h27.1v-62.9h13.7V770h27v-63.7h14.2V770h15.1c8.9,0,11.9-3.5,11.9-19.7v-44h14.2v51
				C1439.6,774.6,1429.8,783.7,1414,783.7z M1372.8,691.6v-15.4h14.2v15.4H1372.8z M1384,669.4V654h14.1v15.4H1384z M1395.1,691.6
				v-15.4h14.2v15.4H1395.1z"/>
			<path class="st1" d="M1514.8,783.7c-12.7,0-30.6-9.4-30.6-37.6c0-27,11.9-39.9,30.6-39.9h31.4V770h19.4v13.7
				C1548.5,783.7,1532.5,783.7,1514.8,783.7z M1532,719c-13.1,0-16.7,0-16.7,0c-13.2,0-16.4,16.9-16.4,27.1
				c0,9.9,4.5,23.8,16.4,23.8c0,0,7.1,0,16.7,0C1532,738.1,1532,755.1,1532,719z M1509.6,691.4V676h14.1v15.4H1509.6z M1531.8,691.4
				V676h14.1v15.4H1531.8z"/>
			<path class="st1" d="M1560.6,783.7V770h27.8v13.7H1560.6z"/>
			<path class="st1" d="M1584.3,783.7V770h27.8v13.7H1584.3z"/>
			<path class="st1" d="M1606.9,783.7V770h66.9v-24.7c0.2-12.1-6.5-18-19.5-18h-43.2V703c0-16.2,12.1-26.8,30.6-26.8h29.3v13.7
				h-29.3c-10.4,0-17,5.6-17,13.4v9.9h29.6c20.7,0,32.6,11.3,32.6,31.4v39.1H1606.9z"/>
			<path class="st1" d="M1742.8,783.7c-7.4,0-13.7-1.8-18.7-5v1.2c0,17.7-11.1,34.3-30.5,33.6V801c5.5-0.3,11.4-4.5,13.9-10.8
				c2.8-6.5,2.3-14.7,2.3-19.2c0-0.5,0-64.4,0-64.7h14.2v48.8c0,9.6,7.4,14.9,18.7,14.9h1.7v13.7H1742.8z"/>
			<path class="st1" d="M1740.3,783.7V770h27.8v13.7H1740.3z"/>
			<path class="st1" d="M1764,783.7V770h27.8v13.7H1764z"/>
			<path class="st1" d="M1885.8,783.7h-97.6V770h27.1v-62.9h13.7V770h27v-63.7h14.2V770h15.1c8.9,0,11.9-3.5,11.9-19.7v-44h14.2v51
				C1911.5,774.6,1901.7,783.7,1885.8,783.7z M1844.6,691.6v-15.4h14.2v15.4H1844.6z M1855.8,669.4V654h14.1v15.4H1855.8z
				 M1866.9,691.6v-15.4h14.2v15.4H1866.9z"/>
		</g>
		<g>
			<path class="st1" d="M31,927.9c-5.1,0-9.6-0.6-13.5-1.8c-3.9-1.2-7.2-2.9-9.9-5.1c-2.7-2.2-4.8-4.9-6.3-8
				c-1.5-3.1-2.3-6.5-2.4-10.3h13.7c1,9.5,7.2,14.2,18.5,14.2c2,0,3.9-0.2,5.6-0.6c1.8-0.4,3.3-1.1,4.7-2c1.4-0.9,2.4-2,3.2-3.4
				c0.8-1.4,1.1-3,1.1-4.8c0-2-0.4-3.6-1.3-4.9s-2.2-2.4-3.8-3.3c-1.6-0.9-3.6-1.6-6-2.3c-2.3-0.6-5-1.3-7.9-1.9
				c-3.4-0.8-6.7-1.6-9.7-2.6c-3.1-0.9-5.7-2.2-8-3.8c-2.3-1.6-4.1-3.6-5.4-6c-1.4-2.4-2-5.5-2-9.1c0-3.5,0.7-6.5,2-9.1
				c1.4-2.6,3.2-4.8,5.7-6.5c2.4-1.7,5.3-3.1,8.6-4c3.3-0.9,6.9-1.3,10.9-1.3c8.6,0,15.3,1.9,20.1,5.8c4.8,3.9,7.5,9.2,8.3,16H43.7
				c-0.5-3.6-2.1-6.4-4.7-8.4c-2.6-1.9-6.1-2.9-10.5-2.9c-4.2,0-7.5,0.8-9.9,2.4c-2.5,1.6-3.7,3.9-3.7,6.9c0,1.7,0.4,3.1,1.3,4.3
				c0.9,1.1,2.1,2.1,3.7,2.9c1.6,0.8,3.6,1.5,5.8,2.1c2.3,0.6,4.8,1.2,7.7,1.8c3.4,0.7,6.7,1.6,9.8,2.6c3.1,1,5.9,2.3,8.4,4
				c2.4,1.7,4.4,3.8,5.8,6.5c1.4,2.6,2.2,5.9,2.2,9.9c0,3.7-0.7,7-2.2,9.8c-1.5,2.8-3.4,5.2-6,7.1c-2.5,1.9-5.6,3.4-9.1,4.4
				C38.8,927.4,35,927.9,31,927.9z"/>
			<path class="st1" d="M81.7,876.2c0,1.7-0.1,3.4-0.1,4.9h0.3c1.8-2.8,4-5,6.7-6.6c2.7-1.6,5.9-2.4,9.6-2.4
				c5.7,0,10.2,1.6,13.4,4.9c3.2,3.3,4.8,7.8,4.8,13.5v35.8h-12.6v-33.7c0-3.2-0.9-5.6-2.6-7.4c-1.7-1.8-4.2-2.7-7.5-2.7
				c-1.8,0-3.4,0.3-4.8,0.9c-1.5,0.6-2.7,1.5-3.8,2.7c-1.1,1.2-1.9,2.5-2.5,4.1c-0.6,1.6-0.9,3.3-0.9,5.1v31H69.2v-73.6h12.6v19.8
				C81.8,873.2,81.8,874.4,81.7,876.2z"/>
			<path class="st1" d="M161.7,926.3c-0.5-0.6-0.8-1.4-1.1-2.5c-0.3-1.1-0.5-2.5-0.6-4.3h-0.2c-1.7,2.3-3.9,4.2-6.4,5.8
				c-2.6,1.5-6,2.3-10.2,2.3c-2.6,0-5-0.3-7.2-1c-2.2-0.7-4.1-1.6-5.7-3c-1.6-1.3-2.8-3-3.8-4.9c-0.9-1.9-1.4-4.2-1.4-6.8
				c0-3,0.5-5.4,1.6-7.4c1.1-1.9,2.6-3.5,4.5-4.7c1.9-1.2,4.2-2.1,6.8-2.7c2.6-0.6,5.5-1.1,8.7-1.5c4.4-0.5,7.6-1.3,9.8-2.2
				c2.2-1,3.3-2.6,3.3-5c0-2.3-0.8-4.2-2.4-5.5s-4-2.1-7.1-2.1c-3.6,0-6.2,0.8-8,2.3c-1.7,1.5-2.7,3.6-2.8,6.2h-11.9
				c0.1-2.2,0.6-4.4,1.5-6.5c1-2.1,2.4-3.9,4.3-5.5c1.9-1.6,4.2-2.9,7-3.8c2.8-1,6-1.4,9.8-1.4c3,0,5.7,0.2,8.1,0.7
				c2.3,0.5,4.4,1.3,6.1,2.4c5,3,7.5,8,7.5,15V918c0,2.2,0.2,3.9,0.5,5c0.4,1.2,0.8,2,1.4,2.4v0.9H161.7z M146.8,918.9
				c2.2,0,4.1-0.3,5.7-1c1.6-0.7,3-1.6,4.2-2.7c1.1-1.1,2-2.3,2.6-3.8c0.6-1.4,0.9-2.9,0.9-4.4v-7.8c-1.3,0.8-2.8,1.5-4.6,2
				c-1.8,0.6-3.7,1-5.6,1.4c-3.9,0.7-6.9,1.7-9,2.8c-2.1,1.2-3.2,3.2-3.2,6.1c0,1.4,0.2,2.6,0.7,3.5c0.5,1,1.2,1.7,2,2.3
				c0.8,0.6,1.8,1,2.9,1.2C144.4,918.8,145.6,918.9,146.8,918.9z"/>
			<path class="st1" d="M196,876.2c0,1.7-0.1,3.4-0.1,4.9h0.3c1.8-2.8,4-5,6.7-6.6c2.7-1.6,5.9-2.4,9.6-2.4c5.7,0,10.2,1.6,13.4,4.9
				c3.2,3.3,4.8,7.8,4.8,13.5v35.8h-12.6v-33.7c0-3.2-0.9-5.6-2.6-7.4c-1.7-1.8-4.2-2.7-7.5-2.7c-1.8,0-3.4,0.3-4.8,0.9
				c-1.5,0.6-2.7,1.5-3.8,2.7c-1.1,1.2-1.9,2.5-2.5,4.1c-0.6,1.6-0.9,3.3-0.9,5.1v31h-12.6v-73.6H196v19.8
				C196,873.2,196,874.4,196,876.2z"/>
			<path class="st1" d="M253.9,882.9h0.3c3.4-6.9,8.4-10.3,15.1-10.3c1.5,0,2.6,0.2,3.4,0.5v11.3h-0.4c-1.1-0.3-2.2-0.4-3.5-0.4
				c-4.2-0.1-7.6,1.3-10.4,4c-2.8,2.7-4.2,6.6-4.2,11.7v26.5h-12.6v-52.8h12.2V882.9z"/>
			<path class="st1" d="M315.1,926.3c-0.5-0.6-0.8-1.4-1.1-2.5c-0.3-1.1-0.5-2.5-0.6-4.3h-0.2c-1.7,2.3-3.9,4.2-6.4,5.8
				c-2.6,1.5-6,2.3-10.2,2.3c-2.6,0-5-0.3-7.2-1c-2.2-0.7-4.1-1.6-5.7-3c-1.6-1.3-2.8-3-3.8-4.9c-0.9-1.9-1.4-4.2-1.4-6.8
				c0-3,0.5-5.4,1.6-7.4c1.1-1.9,2.6-3.5,4.5-4.7c1.9-1.2,4.2-2.1,6.8-2.7c2.6-0.6,5.5-1.1,8.7-1.5c4.4-0.5,7.6-1.3,9.8-2.2
				c2.2-1,3.3-2.6,3.3-5c0-2.3-0.8-4.2-2.4-5.5s-4-2.1-7.1-2.1c-3.6,0-6.2,0.8-8,2.3c-1.7,1.5-2.7,3.6-2.8,6.2h-11.9
				c0.1-2.2,0.6-4.4,1.5-6.5c1-2.1,2.4-3.9,4.3-5.5c1.9-1.6,4.2-2.9,7-3.8c2.8-1,6-1.4,9.8-1.4c3,0,5.7,0.2,8.1,0.7
				c2.3,0.5,4.4,1.3,6.1,2.4c5,3,7.5,8,7.5,15V918c0,2.2,0.2,3.9,0.5,5c0.4,1.2,0.8,2,1.4,2.4v0.9H315.1z M300.2,918.9
				c2.2,0,4.1-0.3,5.7-1c1.6-0.7,3-1.6,4.2-2.7c1.1-1.1,2-2.3,2.6-3.8c0.6-1.4,0.9-2.9,0.9-4.4v-7.8c-1.3,0.8-2.8,1.5-4.6,2
				c-1.8,0.6-3.7,1-5.6,1.4c-3.9,0.7-6.9,1.7-9,2.8c-2.1,1.2-3.2,3.2-3.2,6.1c0,1.4,0.2,2.6,0.7,3.5c0.5,1,1.2,1.7,2,2.3
				c0.8,0.6,1.8,1,2.9,1.2C297.8,918.8,299,918.9,300.2,918.9z"/>
			<path class="st1" d="M349.1,881.2h0.3c1.7-3,3.9-5.2,6.7-6.8c2.7-1.5,6-2.3,9.7-2.3c5.7,0,10.2,1.6,13.4,4.9
				c3.2,3.3,4.8,7.8,4.8,13.5v35.8h-12.6v-33.7c0-3.2-0.9-5.6-2.6-7.4c-1.7-1.8-4.2-2.7-7.5-2.7c-1.8,0-3.4,0.3-4.8,0.9
				c-1.5,0.6-2.7,1.5-3.8,2.7c-1.1,1.2-1.9,2.5-2.5,4.1c-0.6,1.6-0.9,3.3-0.9,5.1v31h-12.6v-52.8h12.3V881.2z"/>
			<path class="st1" d="M421.3,852.7h13.7v73.6h-13.7V852.7z"/>
			<path class="st1" d="M460.1,881.2h0.3c1.7-3,3.9-5.2,6.7-6.8c2.7-1.5,6-2.3,9.7-2.3c5.7,0,10.2,1.6,13.4,4.9
				c3.2,3.3,4.8,7.8,4.8,13.5v35.8h-12.6v-33.7c0-3.2-0.9-5.6-2.6-7.4c-1.7-1.8-4.2-2.7-7.5-2.7c-1.8,0-3.4,0.3-4.8,0.9
				c-1.5,0.6-2.7,1.5-3.8,2.7c-1.1,1.2-1.9,2.5-2.5,4.1c-0.6,1.6-0.9,3.3-0.9,5.1v31h-12.6v-52.8h12.3V881.2z"/>
			<path class="st1" d="M502.9,873.4h8.1v-16.8h12.4v16.8H534v8.6h-10.6v29.6c0,1.9,0.5,3.2,1.5,3.9c1,0.7,2.4,1,4.2,1
				c0.7,0,1.4,0,2.1-0.1c0.8-0.1,1.4-0.2,1.9-0.3h0.6v9.8c-1.1,0.2-2.3,0.4-3.7,0.5c-1.4,0.2-2.9,0.2-4.6,0.2
				c-2.1,0-4.1-0.2-5.8-0.6s-3.3-1.1-4.5-2.1c-1.3-1-2.2-2.2-2.9-3.8c-0.7-1.6-1-3.5-1-5.8v-32.3h-8.1V873.4z"/>
			<path class="st1" d="M567,927.8c-4.2,0-8-0.7-11.3-2.2c-3.3-1.4-6.1-3.4-8.5-5.9c-2.3-2.5-4.1-5.5-5.3-8.9
				c-1.2-3.4-1.8-7-1.8-10.9c0-4,0.6-7.6,1.9-11c1.3-3.4,3-6.3,5.3-8.9c2.3-2.5,5.1-4.5,8.3-5.9c3.2-1.4,6.8-2.1,10.7-2.1
				c3.9,0,7.3,0.6,10.3,1.9c3,1.3,5.6,3.1,7.9,5.5c2.6,2.8,4.5,6.1,5.7,10.1c1.3,4,1.8,8.5,1.8,13.4h-39.5c0.5,4.5,1.9,8.2,4.3,11
				c2.4,2.8,5.8,4.2,10.2,4.2c3,0,5.5-0.6,7.5-1.8c1.9-1.2,3.3-2.9,4.2-5.1h12.3c-0.7,2.4-1.7,4.6-3,6.6c-1.4,2-3.1,3.8-5.1,5.2
				c-2,1.5-4.4,2.6-7.1,3.5C573.2,927.4,570.3,927.8,567,927.8z M566.3,881.2c-4.2,0-7.3,1.3-9.5,3.9c-2.2,2.6-3.5,5.9-4.1,10.1
				h26.3c-0.3-4.4-1.5-7.8-3.7-10.2C573.2,882.4,570.2,881.2,566.3,881.2z"/>
			<path class="st1" d="M613,882.9h0.3c3.4-6.9,8.4-10.3,15.1-10.3c1.5,0,2.6,0.2,3.4,0.5v11.3h-0.4c-1.1-0.3-2.2-0.4-3.5-0.4
				c-4.2-0.1-7.6,1.3-10.4,4c-2.8,2.7-4.2,6.6-4.2,11.7v26.5h-12.6v-52.8H613V882.9z"/>
			<path class="st1" d="M652.3,881.2h0.3c1.7-3,3.9-5.2,6.7-6.8c2.7-1.5,6-2.3,9.7-2.3c5.7,0,10.2,1.6,13.4,4.9
				c3.2,3.3,4.8,7.8,4.8,13.5v35.8h-12.6v-33.7c0-3.2-0.9-5.6-2.6-7.4c-1.7-1.8-4.2-2.7-7.5-2.7c-1.8,0-3.4,0.3-4.8,0.9
				c-1.5,0.6-2.7,1.5-3.8,2.7c-1.1,1.2-1.9,2.5-2.5,4.1c-0.6,1.6-0.9,3.3-0.9,5.1v31H640v-52.8h12.3V881.2z"/>
			<path class="st1" d="M732.5,926.3c-0.5-0.6-0.8-1.4-1.1-2.5c-0.3-1.1-0.5-2.5-0.6-4.3h-0.2c-1.7,2.3-3.9,4.2-6.4,5.8
				c-2.6,1.5-6,2.3-10.2,2.3c-2.6,0-5-0.3-7.2-1c-2.2-0.7-4.1-1.6-5.7-3c-1.6-1.3-2.8-3-3.8-4.9c-0.9-1.9-1.4-4.2-1.4-6.8
				c0-3,0.5-5.4,1.6-7.4c1.1-1.9,2.6-3.5,4.5-4.7c1.9-1.2,4.2-2.1,6.8-2.7c2.6-0.6,5.5-1.1,8.7-1.5c4.4-0.5,7.6-1.3,9.8-2.2
				c2.2-1,3.3-2.6,3.3-5c0-2.3-0.8-4.2-2.4-5.5s-4-2.1-7.1-2.1c-3.6,0-6.2,0.8-8,2.3c-1.7,1.5-2.7,3.6-2.8,6.2h-11.9
				c0.1-2.2,0.6-4.4,1.5-6.5c1-2.1,2.4-3.9,4.3-5.5c1.9-1.6,4.2-2.9,7-3.8c2.8-1,6-1.4,9.8-1.4c3,0,5.7,0.2,8.1,0.7
				c2.3,0.5,4.4,1.3,6.1,2.4c5,3,7.5,8,7.5,15V918c0,2.2,0.2,3.9,0.5,5c0.4,1.2,0.8,2,1.4,2.4v0.9H732.5z M717.6,918.9
				c2.2,0,4.1-0.3,5.7-1c1.6-0.7,3-1.6,4.2-2.7c1.1-1.1,2-2.3,2.6-3.8c0.6-1.4,0.9-2.9,0.9-4.4v-7.8c-1.3,0.8-2.8,1.5-4.6,2
				c-1.8,0.6-3.7,1-5.6,1.4c-3.9,0.7-6.9,1.7-9,2.8c-2.1,1.2-3.2,3.2-3.2,6.1c0,1.4,0.2,2.6,0.7,3.5c0.5,1,1.2,1.7,2,2.3
				c0.8,0.6,1.8,1,2.9,1.2C715.2,918.8,716.4,918.9,717.6,918.9z"/>
			<path class="st1" d="M751.1,873.4h8.1v-16.8h12.4v16.8h10.6v8.6h-10.6v29.6c0,1.9,0.5,3.2,1.5,3.9c1,0.7,2.4,1,4.2,1
				c0.7,0,1.4,0,2.1-0.1c0.8-0.1,1.4-0.2,1.9-0.3h0.6v9.8c-1.1,0.2-2.3,0.4-3.7,0.5c-1.4,0.2-2.9,0.2-4.6,0.2
				c-2.1,0-4.1-0.2-5.8-0.6s-3.3-1.1-4.5-2.1c-1.3-1-2.2-2.2-2.9-3.8c-0.7-1.6-1-3.5-1-5.8v-32.3h-8.1V873.4z"/>
			<path class="st1" d="M790.8,852.7h12.9v12.2h-12.9V852.7z M791,873.4h12.6v52.8H791V873.4z"/>
			<path class="st1" d="M839.2,927.8c-4.1,0-7.8-0.7-11.1-2.2c-3.3-1.4-6.2-3.4-8.5-5.9c-2.3-2.5-4.2-5.5-5.4-8.9
				c-1.3-3.4-1.9-7-1.9-10.9c0-4,0.6-7.6,1.9-11c1.3-3.4,3.1-6.3,5.4-8.9c2.3-2.5,5.2-4.5,8.5-5.9c3.3-1.4,7-2.1,11.1-2.1
				c4.1,0,7.8,0.7,11.1,2.1c3.3,1.4,6.1,3.4,8.5,5.9c2.3,2.5,4.1,5.5,5.4,8.9c1.3,3.4,1.9,7.1,1.9,11c0,3.9-0.6,7.5-1.9,10.9
				c-1.3,3.4-3.1,6.3-5.4,8.9c-2.3,2.5-5.2,4.5-8.5,5.9C847,927.1,843.3,927.8,839.2,927.8z M839.1,918.4c2.3,0,4.3-0.5,6.1-1.4
				c1.7-0.9,3.2-2.2,4.4-3.9c1.2-1.6,2.1-3.6,2.7-5.8c0.6-2.2,0.9-4.7,0.9-7.3c0-2.6-0.3-5.1-0.9-7.4c-0.6-2.3-1.5-4.3-2.7-5.9
				s-2.7-3-4.4-3.9c-1.7-0.9-3.8-1.4-6.1-1.4c-2.3,0-4.4,0.5-6.1,1.4c-1.8,0.9-3.3,2.2-4.5,3.9s-2.1,3.7-2.7,5.9
				c-0.6,2.3-0.9,4.7-0.9,7.4c0,2.6,0.3,5.1,0.9,7.3c0.6,2.2,1.5,4.2,2.7,5.8c1.2,1.6,2.7,2.9,4.5,3.9
				C834.8,917.9,836.8,918.4,839.1,918.4z"/>
			<path class="st1" d="M887.1,881.2h0.3c1.7-3,3.9-5.2,6.7-6.8c2.7-1.5,6-2.3,9.7-2.3c5.7,0,10.2,1.6,13.4,4.9
				c3.2,3.3,4.8,7.8,4.8,13.5v35.8h-12.6v-33.7c0-3.2-0.9-5.6-2.6-7.4c-1.7-1.8-4.2-2.7-7.5-2.7c-1.8,0-3.4,0.3-4.8,0.9
				c-1.5,0.6-2.7,1.5-3.8,2.7c-1.1,1.2-1.9,2.5-2.5,4.1c-0.6,1.6-0.9,3.3-0.9,5.1v31h-12.6v-52.8h12.3V881.2z"/>
			<path class="st1" d="M967.3,926.3c-0.5-0.6-0.8-1.4-1.1-2.5s-0.5-2.5-0.6-4.3h-0.2c-1.7,2.3-3.9,4.2-6.4,5.8
				c-2.6,1.5-6,2.3-10.2,2.3c-2.6,0-5-0.3-7.2-1c-2.2-0.7-4.1-1.6-5.7-3c-1.6-1.3-2.8-3-3.8-4.9c-0.9-1.9-1.4-4.2-1.4-6.8
				c0-3,0.5-5.4,1.6-7.4c1.1-1.9,2.6-3.5,4.5-4.7c1.9-1.2,4.2-2.1,6.8-2.7c2.6-0.6,5.5-1.1,8.7-1.5c4.4-0.5,7.6-1.3,9.8-2.2
				c2.2-1,3.3-2.6,3.3-5c0-2.3-0.8-4.2-2.4-5.5c-1.6-1.4-4-2.1-7.1-2.1c-3.6,0-6.2,0.8-8,2.3c-1.7,1.5-2.7,3.6-2.8,6.2h-11.9
				c0.1-2.2,0.6-4.4,1.5-6.5c1-2.1,2.4-3.9,4.3-5.5c1.9-1.6,4.2-2.9,7-3.8c2.8-1,6-1.4,9.8-1.4c3,0,5.7,0.2,8.1,0.7
				c2.3,0.5,4.4,1.3,6.1,2.4c5,3,7.5,8,7.5,15V918c0,2.2,0.2,3.9,0.5,5c0.4,1.2,0.8,2,1.4,2.4v0.9H967.3z M952.4,918.9
				c2.2,0,4.1-0.3,5.7-1c1.6-0.7,3-1.6,4.2-2.7c1.1-1.1,2-2.3,2.6-3.8c0.6-1.4,0.9-2.9,0.9-4.4v-7.8c-1.3,0.8-2.8,1.5-4.6,2
				c-1.8,0.6-3.7,1-5.6,1.4c-3.9,0.7-6.9,1.7-9,2.8c-2.1,1.2-3.2,3.2-3.2,6.1c0,1.4,0.2,2.6,0.7,3.5c0.5,1,1.2,1.7,2,2.3
				c0.8,0.6,1.8,1,2.9,1.2C950,918.8,951.2,918.9,952.4,918.9z"/>
			<path class="st1" d="M989.3,852.7h12.7v73.6h-12.7V852.7z"/>
			<path class="st1" d="M1067.7,927.9c-5.1,0-9.6-0.6-13.5-1.8c-3.9-1.2-7.2-2.9-9.9-5.1c-2.7-2.2-4.8-4.9-6.3-8
				c-1.5-3.1-2.3-6.5-2.4-10.3h13.7c1,9.5,7.2,14.2,18.5,14.2c2,0,3.9-0.2,5.6-0.6c1.8-0.4,3.3-1.1,4.7-2c1.4-0.9,2.4-2,3.2-3.4
				c0.8-1.4,1.1-3,1.1-4.8c0-2-0.4-3.6-1.3-4.9c-0.9-1.3-2.2-2.4-3.8-3.3c-1.6-0.9-3.6-1.6-6-2.3c-2.3-0.6-5-1.3-7.9-1.9
				c-3.4-0.8-6.7-1.6-9.7-2.6c-3.1-0.9-5.7-2.2-8-3.8c-2.3-1.6-4.1-3.6-5.4-6c-1.4-2.4-2-5.5-2-9.1c0-3.5,0.7-6.5,2-9.1
				c1.4-2.6,3.2-4.8,5.7-6.5c2.4-1.7,5.3-3.1,8.6-4c3.3-0.9,6.9-1.3,10.9-1.3c8.6,0,15.3,1.9,20.1,5.8c4.8,3.9,7.5,9.2,8.3,16h-13.4
				c-0.5-3.6-2.1-6.4-4.7-8.4c-2.6-1.9-6.1-2.9-10.5-2.9c-4.2,0-7.5,0.8-9.9,2.4c-2.5,1.6-3.7,3.9-3.7,6.9c0,1.7,0.4,3.1,1.3,4.3
				c0.9,1.1,2.1,2.1,3.7,2.9c1.6,0.8,3.6,1.5,5.8,2.1c2.3,0.6,4.8,1.2,7.7,1.8c3.4,0.7,6.7,1.6,9.8,2.6c3.1,1,5.9,2.3,8.4,4
				c2.4,1.7,4.4,3.8,5.8,6.5c1.4,2.6,2.2,5.9,2.2,9.9c0,3.7-0.7,7-2.2,9.8c-1.5,2.8-3.4,5.2-6,7.1c-2.5,1.9-5.6,3.4-9,4.4
				C1075.6,927.4,1071.8,927.9,1067.7,927.9z"/>
			<path class="st1" d="M1118.5,876.2c0,1.7-0.1,3.4-0.1,4.9h0.3c1.8-2.8,4-5,6.7-6.6c2.7-1.6,5.9-2.4,9.6-2.4
				c5.7,0,10.2,1.6,13.4,4.9c3.2,3.3,4.8,7.8,4.8,13.5v35.8h-12.6v-33.7c0-3.2-0.9-5.6-2.6-7.4c-1.7-1.8-4.2-2.7-7.5-2.7
				c-1.8,0-3.4,0.3-4.8,0.9c-1.5,0.6-2.7,1.5-3.8,2.7c-1.1,1.2-1.9,2.5-2.5,4.1c-0.6,1.6-0.9,3.3-0.9,5.1v31H1106v-73.6h12.6v19.8
				C1118.5,873.2,1118.5,874.4,1118.5,876.2z"/>
			<path class="st1" d="M1164,852.7h12.9v12.2H1164V852.7z M1164.2,873.4h12.6v52.8h-12.6V873.4z"/>
			<path class="st1" d="M1188.2,873.4h12.2v7.8h0.3c1.9-3,4.2-5.3,6.8-6.9c2.6-1.5,5.8-2.3,9.6-2.3c3.4,0,6.5,0.7,9.3,2
				c2.8,1.3,5.2,3.2,7.2,5.6c2,2.4,3.5,5.4,4.6,8.8c1.1,3.4,1.6,7.3,1.6,11.5c0,4.3-0.5,8.1-1.6,11.6c-1.1,3.4-2.6,6.4-4.6,8.8
				c-2,2.4-4.4,4.3-7.3,5.6s-6.1,2-9.6,2s-6.7-0.7-9.4-2.2c-2.7-1.5-4.9-3.5-6.6-6.2h-0.3c0.1,1,0.2,2.3,0.3,4
				c0.1,1.7,0.1,3.8,0.1,6.3V944h-12.6V873.4z M1214.3,918c2,0,3.9-0.4,5.5-1.3c1.6-0.9,3-2.1,4-3.7s1.9-3.5,2.4-5.6
				c0.6-2.2,0.8-4.5,0.8-7.1c0-2.6-0.3-5.1-0.8-7.3c-0.5-2.2-1.3-4.1-2.4-5.7c-1.1-1.6-2.4-2.8-4-3.7c-1.6-0.9-3.5-1.3-5.6-1.3
				c-2.4,0-4.4,0.5-6.2,1.4c-1.7,0.9-3.2,2.2-4.4,3.9c-1.2,1.6-2,3.6-2.6,5.7c-0.6,2.2-0.8,4.5-0.8,7c0,2.5,0.3,4.8,0.8,7
				c0.6,2.1,1.4,4,2.6,5.6c1.2,1.6,2.6,2.8,4.4,3.8C1209.8,917.5,1211.9,918,1214.3,918z"/>
			<path class="st1" d="M1248.6,873.4h12.2v7.8h0.3c1.9-3,4.2-5.3,6.8-6.9c2.6-1.5,5.8-2.3,9.6-2.3c3.4,0,6.5,0.7,9.3,2
				c2.8,1.3,5.2,3.2,7.2,5.6c2,2.4,3.5,5.4,4.6,8.8c1.1,3.4,1.6,7.3,1.6,11.5c0,4.3-0.5,8.1-1.6,11.6c-1.1,3.4-2.6,6.4-4.6,8.8
				c-2,2.4-4.4,4.3-7.3,5.6s-6.1,2-9.6,2s-6.7-0.7-9.4-2.2c-2.7-1.5-4.9-3.5-6.6-6.2h-0.3c0.1,1,0.2,2.3,0.3,4
				c0.1,1.7,0.1,3.8,0.1,6.3V944h-12.6V873.4z M1274.7,918c2,0,3.9-0.4,5.5-1.3c1.6-0.9,3-2.1,4-3.7s1.9-3.5,2.4-5.6
				c0.6-2.2,0.8-4.5,0.8-7.1c0-2.6-0.3-5.1-0.8-7.3c-0.5-2.2-1.3-4.1-2.4-5.7c-1.1-1.6-2.4-2.8-4-3.7c-1.6-0.9-3.5-1.3-5.6-1.3
				c-2.4,0-4.4,0.5-6.2,1.4c-1.7,0.9-3.2,2.2-4.4,3.9c-1.2,1.6-2,3.6-2.6,5.7c-0.6,2.2-0.8,4.5-0.8,7c0,2.5,0.3,4.8,0.8,7
				c0.6,2.1,1.4,4,2.6,5.6c1.2,1.6,2.6,2.8,4.4,3.8C1270.2,917.5,1272.3,918,1274.7,918z"/>
			<path class="st1" d="M1308.8,852.7h12.9v12.2h-12.9V852.7z M1309,873.4h12.6v52.8H1309V873.4z"/>
			<path class="st1" d="M1345.2,881.2h0.3c1.7-3,3.9-5.2,6.7-6.8c2.7-1.5,6-2.3,9.7-2.3c5.7,0,10.2,1.6,13.4,4.9
				c3.2,3.3,4.8,7.8,4.8,13.5v35.8h-12.6v-33.7c0-3.2-0.9-5.6-2.6-7.4c-1.7-1.8-4.2-2.7-7.5-2.7c-1.8,0-3.4,0.3-4.8,0.9
				c-1.5,0.6-2.7,1.5-3.8,2.7c-1.1,1.2-1.9,2.5-2.5,4.1c-0.6,1.6-0.9,3.3-0.9,5.1v31H1333v-52.8h12.3V881.2z"/>
			<path class="st1" d="M1414.7,944.7c-7.1,0-12.8-1.4-16.9-4.1s-6.6-6.6-7.2-11.6h12.1c0.9,4.4,4.8,6.5,11.9,6.5
				c8.5,0,12.8-3.9,12.8-11.6v-1.3c0-1.5,0-2.8,0-4.1c0-1.3,0.1-2.3,0.1-3.3h-0.3c-1.6,2.6-3.7,4.6-6,6s-5.3,2.1-8.9,2.1
				c-3.2,0-6.2-0.6-9.1-1.8c-2.8-1.2-5.2-2.9-7.3-5s-3.7-4.8-4.9-8c-1.2-3.1-1.8-6.7-1.8-10.6s0.6-7.5,1.7-10.7
				c1.2-3.2,2.7-5.9,4.7-8.2c2-2.2,4.3-4,7.1-5.2c2.7-1.2,5.7-1.8,8.9-1.8c7.3,0,12.5,2.7,15.6,8.2h0.2v-6.8h12.2v49.4
				c0,3.8-0.6,7-1.7,9.7c-1.2,2.7-2.8,5-4.9,6.8c-2.2,1.8-4.8,3.2-7.9,4.1C1421.9,944.2,1418.4,944.7,1414.7,944.7z M1414.5,913.7
				c2.4,0,4.4-0.4,6.1-1.2c1.7-0.8,3-1.9,4.1-3.4c1.1-1.4,1.8-3.1,2.3-5.1c0.5-2,0.7-4.1,0.7-6.4c0-4.7-1.1-8.6-3.3-11.4
				c-2.2-2.9-5.5-4.3-10.1-4.3c-4.2,0-7.3,1.4-9.5,4.3c-2.2,2.9-3.3,6.7-3.3,11.6c0,4.9,1.1,8.8,3.3,11.6
				C1407.1,912.3,1410.3,913.7,1414.5,913.7z"/>
			<path class="st1" d="M1509.7,927.8c-5.3,0-10.2-1-14.5-2.9c-4.4-1.9-8.1-4.6-11.2-8c-3.1-3.4-5.5-7.4-7.2-12.1
				c-1.7-4.6-2.5-9.7-2.5-15.3c0-5.5,0.8-10.5,2.5-15.2c1.6-4.7,4-8.7,7.1-12.2c3.1-3.4,6.8-6.1,11.2-8.1c4.4-1.9,9.3-2.9,14.8-2.9
				c4.2,0,8,0.5,11.5,1.6c3.4,1.1,6.4,2.5,8.9,4.5c3,2.3,5.3,5.1,7.1,8.3c1.7,3.2,2.9,6.8,3.3,10.7h-13.6c-0.7-4-2.5-7.2-5.4-9.7
				c-3-2.5-6.9-3.8-11.8-3.8c-3.5,0-6.6,0.7-9.2,2c-2.7,1.4-4.9,3.2-6.7,5.6c-1.8,2.4-3.2,5.2-4.1,8.5c-0.9,3.3-1.4,6.8-1.4,10.6
				c0,3.9,0.5,7.5,1.5,10.7c1,3.3,2.5,6.1,4.4,8.4c1.9,2.3,4.1,4.2,6.8,5.5c2.6,1.3,5.6,2,8.9,2c2.8,0,5.2-0.4,7.3-1.3
				c2.1-0.9,3.9-2,5.4-3.5s2.7-3.2,3.5-5.1c0.9-1.9,1.4-4,1.6-6.3h13.7c-0.1,3.7-1,7.3-2.6,10.7c-1.6,3.5-3.7,6.4-6.3,9
				C1527.1,925.1,1519.5,927.8,1509.7,927.8z"/>
			<path class="st1" d="M1574.8,927.8c-4.1,0-7.8-0.7-11.1-2.2c-3.3-1.4-6.2-3.4-8.5-5.9c-2.3-2.5-4.2-5.5-5.4-8.9
				c-1.3-3.4-1.9-7-1.9-10.9c0-4,0.6-7.6,1.9-11c1.3-3.4,3.1-6.3,5.4-8.9c2.3-2.5,5.2-4.5,8.5-5.9c3.3-1.4,7-2.1,11.1-2.1
				c4.1,0,7.8,0.7,11.1,2.1c3.3,1.4,6.1,3.4,8.5,5.9c2.3,2.5,4.1,5.5,5.4,8.9c1.3,3.4,1.9,7.1,1.9,11c0,3.9-0.6,7.5-1.9,10.9
				c-1.3,3.4-3.1,6.3-5.4,8.9c-2.3,2.5-5.2,4.5-8.5,5.9C1582.6,927.1,1578.9,927.8,1574.8,927.8z M1574.7,918.4
				c2.3,0,4.3-0.5,6.1-1.4c1.7-0.9,3.2-2.2,4.4-3.9c1.2-1.6,2.1-3.6,2.7-5.8c0.6-2.2,0.9-4.7,0.9-7.3c0-2.6-0.3-5.1-0.9-7.4
				c-0.6-2.3-1.5-4.3-2.7-5.9s-2.7-3-4.4-3.9c-1.7-0.9-3.8-1.4-6.1-1.4c-2.3,0-4.4,0.5-6.1,1.4c-1.8,0.9-3.3,2.2-4.5,3.9
				c-1.2,1.7-2.1,3.7-2.7,5.9s-0.9,4.7-0.9,7.4c0,2.6,0.3,5.1,0.9,7.3c0.6,2.2,1.5,4.2,2.7,5.8c1.2,1.6,2.7,2.9,4.5,3.9
				C1570.4,917.9,1572.4,918.4,1574.7,918.4z"/>
			<path class="st1" d="M1610.4,873.4h12.2v8h0.3c1.7-3,3.9-5.3,6.5-6.9c2.6-1.6,5.7-2.5,9.3-2.5c3.4,0,6.2,0.8,8.7,2.5
				c2.4,1.6,4.2,4.1,5.4,7.4h0.2c2.1-3.4,4.6-5.9,7.4-7.5c2.8-1.6,5.9-2.4,9.2-2.4c5.4,0,9.6,1.6,12.6,4.9c3,3.3,4.5,7.8,4.5,13.5
				v35.8h-12.6v-34.1c0-3-0.8-5.4-2.4-7.1c-1.6-1.7-3.7-2.6-6.2-2.6c-3.1,0-5.7,1.2-7.7,3.5c-2,2.3-3,5.3-3,9.1v31.3h-12.6v-34.1
				c0-3-0.7-5.4-2.2-7.1c-1.5-1.7-3.5-2.6-6.1-2.6c-1.5,0-2.8,0.3-4.2,0.9c-1.3,0.6-2.5,1.5-3.5,2.6c-1,1.1-1.8,2.4-2.4,4
				c-0.6,1.6-0.9,3.2-0.9,5.1v31.3h-12.6V873.4z"/>
			<path class="st1" d="M1697.8,873.4h12.2v7.8h0.3c1.9-3,4.2-5.3,6.8-6.9c2.6-1.5,5.8-2.3,9.6-2.3c3.4,0,6.5,0.7,9.3,2
				c2.8,1.3,5.2,3.2,7.2,5.6c2,2.4,3.5,5.4,4.6,8.8c1.1,3.4,1.6,7.3,1.6,11.5c0,4.3-0.5,8.1-1.6,11.6c-1.1,3.4-2.6,6.4-4.6,8.8
				c-2,2.4-4.4,4.3-7.3,5.6s-6.1,2-9.6,2s-6.7-0.7-9.4-2.2c-2.7-1.5-4.9-3.5-6.6-6.2h-0.3c0.1,1,0.2,2.3,0.3,4
				c0.1,1.7,0.1,3.8,0.1,6.3V944h-12.6V873.4z M1723.9,918c2,0,3.9-0.4,5.5-1.3c1.6-0.9,3-2.1,4-3.7s1.9-3.5,2.4-5.6
				c0.6-2.2,0.8-4.5,0.8-7.1c0-2.6-0.3-5.1-0.8-7.3c-0.5-2.2-1.3-4.1-2.4-5.7c-1.1-1.6-2.4-2.8-4-3.7c-1.6-0.9-3.5-1.3-5.6-1.3
				c-2.4,0-4.4,0.5-6.2,1.4c-1.7,0.9-3.2,2.2-4.4,3.9c-1.2,1.6-2,3.6-2.6,5.7c-0.6,2.2-0.8,4.5-0.8,7c0,2.5,0.3,4.8,0.8,7
				c0.6,2.1,1.4,4,2.6,5.6c1.2,1.6,2.6,2.8,4.4,3.8C1719.3,917.5,1721.4,918,1723.9,918z"/>
			<path class="st1" d="M1792.4,926.3c-0.5-0.6-0.8-1.4-1.1-2.5s-0.5-2.5-0.6-4.3h-0.2c-1.7,2.3-3.9,4.2-6.4,5.8
				c-2.6,1.5-6,2.3-10.2,2.3c-2.6,0-5-0.3-7.2-1c-2.2-0.7-4.1-1.6-5.7-3c-1.6-1.3-2.8-3-3.8-4.9c-0.9-1.9-1.4-4.2-1.4-6.8
				c0-3,0.5-5.4,1.6-7.4c1.1-1.9,2.6-3.5,4.5-4.7c1.9-1.2,4.2-2.1,6.8-2.7c2.6-0.6,5.5-1.1,8.7-1.5c4.4-0.5,7.6-1.3,9.8-2.2
				c2.2-1,3.3-2.6,3.3-5c0-2.3-0.8-4.2-2.4-5.5c-1.6-1.4-4-2.1-7.1-2.1c-3.6,0-6.2,0.8-8,2.3c-1.7,1.5-2.7,3.6-2.8,6.2h-11.9
				c0.1-2.2,0.6-4.4,1.5-6.5c1-2.1,2.4-3.9,4.3-5.5c1.9-1.6,4.2-2.9,7-3.8c2.8-1,6-1.4,9.8-1.4c3,0,5.7,0.2,8.1,0.7
				c2.3,0.5,4.4,1.3,6.1,2.4c5,3,7.5,8,7.5,15V918c0,2.2,0.2,3.9,0.5,5c0.4,1.2,0.8,2,1.4,2.4v0.9H1792.4z M1777.5,918.9
				c2.2,0,4.1-0.3,5.7-1c1.6-0.7,3-1.6,4.2-2.7c1.1-1.1,2-2.3,2.6-3.8c0.6-1.4,0.9-2.9,0.9-4.4v-7.8c-1.3,0.8-2.8,1.5-4.6,2
				c-1.8,0.6-3.7,1-5.6,1.4c-3.9,0.7-6.9,1.7-9,2.8c-2.1,1.2-3.2,3.2-3.2,6.1c0,1.4,0.2,2.6,0.7,3.5c0.5,1,1.2,1.7,2,2.3
				c0.8,0.6,1.8,1,2.9,1.2C1775.1,918.8,1776.3,918.9,1777.5,918.9z"/>
			<path class="st1" d="M1826.4,881.2h0.3c1.7-3,3.9-5.2,6.7-6.8c2.7-1.5,6-2.3,9.7-2.3c5.7,0,10.2,1.6,13.4,4.9
				c3.2,3.3,4.8,7.8,4.8,13.5v35.8h-12.6v-33.7c0-3.2-0.9-5.6-2.6-7.4c-1.7-1.8-4.2-2.7-7.5-2.7c-1.8,0-3.4,0.3-4.8,0.9
				c-1.5,0.6-2.7,1.5-3.8,2.7c-1.1,1.2-1.9,2.5-2.5,4.1c-0.6,1.6-0.9,3.3-0.9,5.1v31h-12.6v-52.8h12.3V881.2z"/>
			<path class="st1" d="M1881.5,944.3c-0.4,0-1.1,0-2,0c-0.9,0-1.9-0.1-2.9-0.1c-1-0.1-1.9-0.1-2.8-0.2c-0.9-0.1-1.4-0.1-1.6-0.2
				v-10.2h0.7c0.1,0.1,0.4,0.1,0.8,0.2c0.4,0.1,0.9,0.1,1.5,0.1c0.6,0,1.1,0.1,1.6,0.1c0.5,0,1,0,1.3,0c2.1,0,3.8-0.4,5-1.3
				c1.3-0.9,2.1-2.4,2.7-4.5c0-0.3,0-0.7,0-1.4c0-0.7,0-1.4,0-2.3c0-0.9,0-1.7-0.1-2.7c-0.1-0.9-0.3-1.7-0.5-2.5l-18.2-45.9h13.4
				l8.7,24.5c0.5,1.6,1.1,3.4,1.6,5.3c0.6,1.9,1,3.7,1.4,5.3c0.5,1.9,0.9,3.8,1.4,5.7h0.2c0.5-2,1-3.9,1.5-5.8
				c0.5-1.6,1-3.4,1.5-5.3c0.5-1.9,1.1-3.6,1.6-5.3l8.4-24.5h12.7l-20.5,55.8c-1.1,2.9-2.2,5.3-3.4,7.3c-1.1,1.9-2.4,3.5-3.8,4.6
				c-1.4,1.2-2.9,2-4.6,2.4C1885.6,944,1883.7,944.3,1881.5,944.3z"/>
		</g>
	</g>
</g>
</svg>
